<?xml version="1.0" encoding="UTF-8" standalone="no"?>
<svg
   height="16"
   viewBox="0 0 16 16"
   width="16"
   version="1.1"
   id="svg135"
   sodipodi:docname="normal_selection_mode_checked.svg"
   inkscape:version="1.2.1 (9c6d41e410, 2022-07-14)"
   xmlns:inkscape="http://www.inkscape.org/namespaces/inkscape"
   xmlns:sodipodi="http://sodipodi.sourceforge.net/DTD/sodipodi-0.dtd"
   xmlns="http://www.w3.org/2000/svg"
   xmlns:svg="http://www.w3.org/2000/svg">
  <defs
     id="defs139" />
  <sodipodi:namedview
     id="namedview137"
     pagecolor="#ffffff"
     bordercolor="#666666"
     borderopacity="1.0"
     inkscape:showpageshadow="2"
     inkscape:pageopacity="0.0"
     inkscape:pagecheckerboard="0"
     inkscape:deskcolor="#d1d1d1"
     showgrid="false"
     inkscape:zoom="31.201087"
     inkscape:cx="1.2179063"
     inkscape:cy="7.0670615"
     inkscape:window-width="1680"
     inkscape:window-height="1022"
     inkscape:window-x="1920"
     inkscape:window-y="0"
     inkscape:window-maximized="1"
     inkscape:current-layer="svg135" />
  <rect
     style="fill:#e0e0e0;fill-opacity:0.996078;stroke-width:1.46553"
     id="rect5117"
     width="15.341605"
     height="1.4895701"
     x="-7.6888409"
     y="10.519549"
     transform="matrix(0.71995865,-0.69401696,0.71819788,0.69583892,0,0)" />
  <rect
     style="fill:#e0e0e0;fill-opacity:0.996078;stroke-width:1.15011"
     id="rect9228"
     width="5.3309312"
     height="2.1338913"
     x="8.1036835"
     y="1.3486512"
     ry="0.97849977"
     transform="matrix(0.99989439,-0.01453336,0.06097382,0.99813937,0,0)"
     rx="0" />
  <rect
     style="fill:#e0e0e0;fill-opacity:0.996078;stroke-width:1.26909"
     id="rect9230"
     width="6.4841051"
     height="2.1361551"
     x="0.044045988"
     y="-15.099688"
     ry="0.97953784"
     transform="matrix(-0.09241745,0.99572035,-0.99675418,-0.08050531,0,0)"
     rx="0.073620699" />
  <path
     style="fill:#e0e0e0;fill-opacity:0.996078;stroke-width:0.0320502"
     d="M 2.5525131,13.151461 2.0442355,12.651609 2.1839362,12.515667 C 2.2607717,12.440898 4.3427975,10.436119 6.8106602,8.0606006 9.278523,5.6850824 11.398641,3.6414208 11.522035,3.5191305 L 11.746386,3.2967845 10.042747,3.3195008 8.3391089,3.342217 8.31969,3.1374036 C 8.2817795,2.7375549 8.2008009,1.2753648 8.2157398,1.260426 c 0.00835,-0.00835 0.8782723,-0.027731 1.9331632,-0.043072 1.054892,-0.015341 2.242492,-0.036611 2.639113,-0.047268 0.737087,-0.019805 1.373298,0.01214 1.903617,0.095583 0.156796,0.024671 0.295825,0.056468 0.308954,0.07066 0.01313,0.014192 -0.107986,1.4392154 -0.269143,3.1667194 l -0.293014,3.1409162 -0.464643,-0.00631 c -0.691385,-0.00938 -1.59573,-0.1114368 -1.620256,-0.1828429 -0.0067,-0.019361 0.04998,-0.6914295 0.125847,-1.4934849 0.07587,-0.8020554 0.136661,-1.4607087 0.1351,-1.463674 -0.0016,-0.00296 -2.14098,2.0558569 -4.7542662,4.5751612 -2.6132856,2.519304 -4.7622267,4.580089 -4.7754246,4.579523 -0.013198,-5.66e-4 -0.2527213,-0.225962 -0.5322741,-0.50088 z"
     id="path9313" />
  <path
     style="fill:#6a9dea;fill-opacity:0.99607843;stroke-width:0.0320502"
     d="M 2.5484419,13.152531 2.036093,12.654797 2.2760155,12.426884 C 2.4079729,12.301532 2.7322766,11.989406 2.9966905,11.733272 3.9140819,10.844606 4.2924257,10.479779 6.9388609,7.9319353 10.090642,4.8975714 11.405458,3.630751 11.60216,3.4388609 L 11.746386,3.2981635 10.043394,3.3205748 8.3404018,3.342986 8.321779,3.1858633 C 8.3115368,3.0994459 8.2948027,2.8628811 8.2845925,2.6601638 8.2743823,2.4574465 8.2602004,2.2266853 8.2530776,2.1473611 8.2459548,2.0680369 8.2308646,1.8352638 8.2195441,1.6300875 L 8.1989615,1.2570396 8.7227173,1.2385415 c 1.2900117,-0.045561 4.9322607,-0.079241 5.2992297,-0.049003 0.45793,0.037734 0.945206,0.1107962 0.978985,0.1467899 0.01332,0.014192 -0.0095,0.3863675 -0.05077,0.8270573 -0.12176,1.3010719 -0.360488,3.8849839 -0.432322,4.6793242 -0.03667,0.4054346 -0.07265,0.755182 -0.07996,0.7772165 -0.0089,0.026823 -0.08512,0.04002 -0.23064,0.039932 -0.519341,-3.205e-4 -1.784529,-0.1280017 -1.842482,-0.1859541 -0.01426,-0.014265 0.02516,-0.5731621 0.08761,-1.2419949 0.06245,-0.6688325 0.122157,-1.3314399 0.132684,-1.4724606 l 0.01914,-0.2564013 -0.348778,0.3357434 C 11.834958,5.243535 11.16726,5.8870376 10.558585,6.4741335 9.8696492,7.1386459 9.2569144,7.7292125 8.7646601,8.2031566 8.5184568,8.4402018 8.1223132,8.8232532 7.8843408,9.0543824 7.6463683,9.2855112 6.6728445,10.223596 5.7209546,11.139015 4.7690647,12.054434 3.7935232,12.994654 3.5530846,13.228392 3.312646,13.46213 3.1035187,13.652672 3.0883572,13.651818 3.0731957,13.650966 2.8302338,13.426285 2.5484419,13.152531 Z"
     id="path9315" />
</svg>
