<?xml version="1.0" encoding="UTF-8" standalone="no"?>
<!-- Created with Inkscape (http://www.inkscape.org/) -->

<svg
   width="145.9482mm"
   height="167.21661mm"
   viewBox="0 0 145.9482 167.21661"
   version="1.1"
   id="svg5"
   xmlns="http://www.w3.org/2000/svg"
   xmlns:svg="http://www.w3.org/2000/svg">
  <defs
     id="defs2">
    <marker
       style="overflow:visible"
       id="DotM"
       refX="0"
       refY="0"
       orient="auto">
      <path
         transform="matrix(0.4,0,0,0.4,2.96,0.4)"
         style="fill:context-stroke;fill-rule:evenodd;stroke:context-stroke;stroke-width:1pt"
         d="m -2.5,-1 c 0,2.76 -2.24,5 -5,5 -2.76,0 -5,-2.24 -5,-5 0,-2.76 2.24,-5 5,-5 2.76,0 5,2.24 5,5 z"
         id="path33694" />
    </marker>
    <marker
       style="overflow:visible"
       id="Arrow1Lstart"
       refX="0"
       refY="0"
       orient="auto">
      <path
         transform="matrix(0.8,0,0,0.8,10,0)"
         style="fill:context-stroke;fill-rule:evenodd;stroke:context-stroke;stroke-width:1pt"
         d="M 0,0 5,-5 -12.5,0 5,5 Z"
         id="path102766" />
    </marker>
    <marker
       style="overflow:visible"
       id="DotL"
       refX="0"
       refY="0"
       orient="auto">
      <path
         transform="matrix(0.8,0,0,0.8,5.92,0.8)"
         style="fill:context-stroke;fill-rule:evenodd;stroke:context-stroke;stroke-width:1pt"
         d="m -2.5,-1 c 0,2.76 -2.24,5 -5,5 -2.76,0 -5,-2.24 -5,-5 0,-2.76 2.24,-5 5,-5 2.76,0 5,2.24 5,5 z"
         id="path102827" />
    </marker>
  </defs>
  <g
     id="layer4"
     transform="translate(4.2333349,-591.07924)">
    <g
       id="g57611"
       transform="translate(5.7440627e-8,476.25001)"
       style="display:inline">
      <g
         id="g103505-8-3-9"
         transform="translate(-0.0776709,44.046375)">
        <g
           id="g2635-6-2"
           transform="translate(11.456795,19.843753)"
           style="stroke-width:8.46667;stroke-miterlimit:4;stroke-dasharray:none">
          <path
             style="fill:none;stroke:#000000;stroke-width:8.46667;stroke-linecap:round;stroke-linejoin:round;stroke-miterlimit:4;stroke-dasharray:none;stroke-opacity:1"
             d="M -11.379124,174.23488 V 94.859876 l 45.827179,26.458334 m 22.913589,39.6875 v 52.91667 l -68.740768,-39.6875"
             id="path1265-0-2" />
          <path
             style="font-variation-settings:normal;opacity:1;fill:none;fill-opacity:1;stroke:#000000;stroke-width:8.46667;stroke-linecap:round;stroke-linejoin:round;stroke-miterlimit:4;stroke-dasharray:none;stroke-dashoffset:0;stroke-opacity:1;stop-color:#000000;stop-opacity:1"
             d="m 57.361644,213.92238 68.740766,-39.6875 v -52.91667"
             id="path2033-6-8" />
          <path
             style="font-variation-settings:normal;opacity:1;fill:none;fill-opacity:1;stroke:#000000;stroke-width:8.46667;stroke-linecap:round;stroke-linejoin:round;stroke-miterlimit:4;stroke-dasharray:none;stroke-dashoffset:0;stroke-opacity:1;stop-color:#000000;stop-opacity:1"
             d="m -11.379124,94.859876 68.740769,-39.6875 45.827175,26.458335"
             id="path2327-2-9" />
        </g>
      </g>
      <g
         id="g57602"
         style="fill:#219ebc;fill-opacity:1;stroke:#219ebc;stroke-opacity:1">
        <path
           style="fill:#219ebc;fill-opacity:1;stroke:#219ebc;stroke-width:4;stroke-linecap:round;stroke-linejoin:round;stroke-miterlimit:4;stroke-dasharray:none;stroke-opacity:1"
           d="m 68.740768,211.66667 v -13.22916 l -11.456794,-6.61459 68.740766,-39.68749 11.4568,6.61458 v 13.22916 z"
           id="path34199" />
      </g>
    </g>
  </g>
</svg>
