<?xml version="1.0" encoding="UTF-8" standalone="no"?>
<!-- Created with Inkscape (http://www.inkscape.org/) -->

<svg
   width="143.83154mm"
   height="165.09995mm"
   viewBox="0 0 143.83155 165.09994"
   version="1.1"
   id="svg5"
   xmlns="http://www.w3.org/2000/svg"
   xmlns:svg="http://www.w3.org/2000/svg">
  <defs
     id="defs2">
    <marker
       style="overflow:visible"
       id="DotM"
       refX="0"
       refY="0"
       orient="auto">
      <path
         transform="matrix(0.4,0,0,0.4,2.96,0.4)"
         style="fill:context-stroke;fill-rule:evenodd;stroke:context-stroke;stroke-width:1pt"
         d="m -2.5,-1 c 0,2.76 -2.24,5 -5,5 -2.76,0 -5,-2.24 -5,-5 0,-2.76 2.24,-5 5,-5 2.76,0 5,2.24 5,5 z"
         id="path33694" />
    </marker>
    <marker
       style="overflow:visible"
       id="Arrow1Lstart"
       refX="0"
       refY="0"
       orient="auto">
      <path
         transform="matrix(0.8,0,0,0.8,10,0)"
         style="fill:context-stroke;fill-rule:evenodd;stroke:context-stroke;stroke-width:1pt"
         d="M 0,0 5,-5 -12.5,0 5,5 Z"
         id="path102766" />
    </marker>
    <marker
       style="overflow:visible"
       id="DotL"
       refX="0"
       refY="0"
       orient="auto">
      <path
         transform="matrix(0.8,0,0,0.8,5.92,0.8)"
         style="fill:context-stroke;fill-rule:evenodd;stroke:context-stroke;stroke-width:1pt"
         d="m -2.5,-1 c 0,2.76 -2.24,5 -5,5 -2.76,0 -5,-2.24 -5,-5 0,-2.76 2.24,-5 5,-5 2.76,0 5,2.24 5,5 z"
         id="path102827" />
    </marker>
  </defs>
  <g
     id="layer17"
     transform="translate(-820.65588,-2019.8292)">
    <g
       id="g156354"
       style="display:inline"
       transform="translate(8.5982441e-7,-1.1761475e-5)">
      <g
         id="g156259">
        <g
           id="g245911-2-1"
           transform="translate(11.45679,1435.3646)">
          <g
             id="g107630-6-0-0"
             transform="translate(813.43242,-6.614583)">
            <g
               id="g103505-8-3-9-1-4-2-6"
               transform="translate(-0.0776708,520.29638)">
              <g
                 id="g2635-6-2-2-6-3-3"
                 transform="translate(11.456795,19.843753)"
                 style="stroke-width:8.46667;stroke-miterlimit:4;stroke-dasharray:none">
                <path
                   style="fill:none;stroke:#000000;stroke-width:8.46667;stroke-linecap:round;stroke-linejoin:round;stroke-miterlimit:4;stroke-dasharray:none;stroke-opacity:1"
                   d="M -11.379124,174.23488 V 94.859876 l 45.82718,26.458334 m 0,79.375 -45.82718,-26.45833"
                   id="path1265-0-2-9-2-7-2" />
                <path
                   style="font-variation-settings:normal;opacity:1;fill:none;fill-opacity:1;stroke:#000000;stroke-width:8.46667;stroke-linecap:round;stroke-linejoin:round;stroke-miterlimit:4;stroke-dasharray:none;stroke-dashoffset:0;stroke-opacity:1;stop-color:#000000;stop-opacity:1"
                   d="m -11.379124,94.859876 68.740769,-39.6875 45.827175,26.458335"
                   id="path2327-2-9-1-8-5-0" />
              </g>
            </g>
          </g>
          <path
             style="fill:none;stroke:#000000;stroke-width:4.23333;stroke-linecap:round;stroke-linejoin:round;stroke-miterlimit:4;stroke-dasharray:12.7, 12.7;stroke-dashoffset:4.65667;stroke-opacity:1"
             d="m 893.62999,727.6042 45.82718,-79.375"
             id="path3631-8-22-1" />
          <path
             style="fill:none;stroke:#000000;stroke-width:4.23333;stroke-linecap:round;stroke-linejoin:round;stroke-miterlimit:4;stroke-dasharray:12.7, 12.7;stroke-dashoffset:4.65667;stroke-opacity:1"
             d="m 882.17319,668.07294 v 79.375"
             id="path3631-8-4-8-5" />
          <path
             style="fill:none;stroke:#000000;stroke-width:4.23333;stroke-linecap:round;stroke-linejoin:round;stroke-miterlimit:4;stroke-dasharray:12.7, 12.7;stroke-dashoffset:4.65667;stroke-opacity:1"
             d="m 950.91396,628.38543 v 79.375"
             id="path3631-8-2-9-54" />
          <path
             style="fill:none;stroke:#000000;stroke-width:4.23333;stroke-linecap:round;stroke-linejoin:bevel;stroke-miterlimit:4;stroke-dasharray:12.7, 12.7;stroke-dashoffset:5.08;stroke-opacity:1;paint-order:normal"
             d="m 950.91393,707.76044 -68.74074,39.6875"
             id="path3631-7-5-2-73-7" />
          <path
             style="fill:none;stroke:#000000;stroke-width:4.23333;stroke-linecap:round;stroke-linejoin:bevel;stroke-miterlimit:4;stroke-dasharray:12.7, 12.7;stroke-dashoffset:5.08;stroke-opacity:1;paint-order:normal"
             d="m 950.91393,628.38543 -68.74074,39.6875"
             id="path3631-7-5-2-7-1-5" />
        </g>
        <path
           style="fill:none;stroke:#000000;stroke-width:4.23333;stroke-linecap:round;stroke-linejoin:round;stroke-miterlimit:4;stroke-dasharray:12.7, 12.7;stroke-dashoffset:4.65667;stroke-opacity:1"
           d="m 882.17319,2162.9688 -45.82718,-79.375 m 103.11115,-19.8437 h -91.65435"
           id="path3631-8-22-1-6" />
      </g>
    </g>
  </g>
</svg>
